<mxfile host="app.diagrams.net" modified="2022-03-25T16:10:48.307Z" agent="5.0 (X11)" etag="3WUYf7BixYTr2YFv6BqE" version="17.1.3" type="github">
  <diagram id="FR1uCYQZczAYhg5O9wN_" name="Page-1">
    <mxGraphModel dx="1031" dy="528" grid="1" gridSize="10" guides="1" tooltips="1" connect="1" arrows="1" fold="1" page="1" pageScale="1" pageWidth="850" pageHeight="1100" math="0" shadow="0">
      <root>
        <mxCell id="0" />
        <mxCell id="1" parent="0" />
        <mxCell id="0t1lgcjL23reqzB8x4_P-1" value="Digital Group" style="rounded=0;whiteSpace=wrap;html=1;labelPosition=center;verticalLabelPosition=bottom;align=center;verticalAlign=top;" vertex="1" parent="1">
          <mxGeometry x="26" y="150" width="240" height="60" as="geometry" />
        </mxCell>
        <mxCell id="0t1lgcjL23reqzB8x4_P-2" value="Legacy System" style="rounded=0;whiteSpace=wrap;html=1;labelPosition=center;verticalLabelPosition=bottom;align=center;verticalAlign=top;" vertex="1" parent="1">
          <mxGeometry x="26" y="260" width="240" height="60" as="geometry" />
        </mxCell>
        <mxCell id="0t1lgcjL23reqzB8x4_P-4" style="edgeStyle=orthogonalEdgeStyle;rounded=0;orthogonalLoop=1;jettySize=auto;html=1;entryX=0.5;entryY=0;entryDx=0;entryDy=0;startArrow=classic;startFill=1;exitX=0.5;exitY=1;exitDx=0;exitDy=0;" edge="1" parent="1" source="0t1lgcjL23reqzB8x4_P-12" target="0t1lgcjL23reqzB8x4_P-11">
          <mxGeometry relative="1" as="geometry" />
        </mxCell>
        <mxCell id="0t1lgcjL23reqzB8x4_P-3" value="Online Store" style="rounded=0;whiteSpace=wrap;html=1;" vertex="1" parent="1">
          <mxGeometry x="26" y="110" width="120" height="30" as="geometry" />
        </mxCell>
        <mxCell id="0t1lgcjL23reqzB8x4_P-5" value="Mobile" style="rounded=0;whiteSpace=wrap;html=1;" vertex="1" parent="1">
          <mxGeometry x="26" y="80" width="60" height="20" as="geometry" />
        </mxCell>
        <mxCell id="0t1lgcjL23reqzB8x4_P-7" value="&lt;br&gt;&lt;ol&gt;&lt;li&gt;Omni channel Experience&lt;/li&gt;&lt;li&gt;Agile&lt;/li&gt;&lt;li&gt;Modernize &lt;br&gt;&lt;/li&gt;&lt;li&gt;Consolidate Capabilities&lt;br&gt;&lt;/li&gt;&lt;/ol&gt;" style="text;html=1;strokeColor=default;fillColor=none;align=center;verticalAlign=middle;whiteSpace=wrap;rounded=0;labelPosition=center;verticalLabelPosition=middle;dashed=1;" vertex="1" parent="1">
          <mxGeometry x="360" y="160" width="130" height="160" as="geometry" />
        </mxCell>
        <mxCell id="0t1lgcjL23reqzB8x4_P-10" value="&lt;br&gt;&lt;ol&gt;&lt;li&gt;Domain or Product teams&lt;/li&gt;&lt;li&gt;Scrum Practices&lt;br&gt;&lt;/li&gt;&lt;li&gt;TDD&lt;br&gt;&lt;/li&gt;&lt;li&gt;&amp;nbsp;CI/CD&lt;/li&gt;&lt;li&gt;Evolutionary Design&lt;br&gt;&lt;/li&gt;&lt;li&gt;Infrastructure Automation &lt;br&gt;&lt;/li&gt;&lt;/ol&gt;" style="text;html=1;strokeColor=default;fillColor=none;align=center;verticalAlign=middle;whiteSpace=wrap;rounded=0;labelPosition=center;verticalLabelPosition=middle;dashed=1;" vertex="1" parent="1">
          <mxGeometry x="600" y="160" width="130" height="160" as="geometry" />
        </mxCell>
        <mxCell id="0t1lgcjL23reqzB8x4_P-11" value="Catalog" style="rounded=0;whiteSpace=wrap;html=1;dashed=1;fontSize=12;strokeColor=default;" vertex="1" parent="1">
          <mxGeometry x="50" y="280" width="60" height="20" as="geometry" />
        </mxCell>
        <mxCell id="0t1lgcjL23reqzB8x4_P-12" value="Catalog" style="rounded=0;whiteSpace=wrap;html=1;dashed=1;fontSize=12;strokeColor=default;" vertex="1" parent="1">
          <mxGeometry x="40" y="170" width="60" height="20" as="geometry" />
        </mxCell>
        <mxCell id="0t1lgcjL23reqzB8x4_P-13" value="Inventory" style="rounded=0;whiteSpace=wrap;html=1;dashed=1;fontSize=12;strokeColor=default;" vertex="1" parent="1">
          <mxGeometry x="150" y="170" width="60" height="20" as="geometry" />
        </mxCell>
        <mxCell id="0t1lgcjL23reqzB8x4_P-14" value="Inventory" style="rounded=0;whiteSpace=wrap;html=1;dashed=1;fontSize=12;strokeColor=default;" vertex="1" parent="1">
          <mxGeometry x="146" y="280" width="60" height="20" as="geometry" />
        </mxCell>
        <mxCell id="0t1lgcjL23reqzB8x4_P-16" value="1" style="shape=flexArrow;endArrow=classic;html=1;rounded=0;fontSize=12;width=11.5;endSize=6.5;labelPosition=right;verticalLabelPosition=middle;align=left;verticalAlign=middle;" edge="1" parent="1">
          <mxGeometry x="0.2" width="50" height="50" relative="1" as="geometry">
            <mxPoint x="290" y="239.75" as="sourcePoint" />
            <mxPoint x="340" y="239.75" as="targetPoint" />
            <Array as="points" />
            <mxPoint as="offset" />
          </mxGeometry>
        </mxCell>
        <mxCell id="0t1lgcjL23reqzB8x4_P-17" value="" style="shape=flexArrow;endArrow=classic;html=1;rounded=0;fontSize=12;" edge="1" parent="1">
          <mxGeometry width="50" height="50" relative="1" as="geometry">
            <mxPoint x="515" y="240.75" as="sourcePoint" />
            <mxPoint x="565" y="240.75" as="targetPoint" />
            <Array as="points">
              <mxPoint x="545" y="240.75" />
            </Array>
          </mxGeometry>
        </mxCell>
        <mxCell id="0t1lgcjL23reqzB8x4_P-18" value="2" style="edgeLabel;html=1;align=center;verticalAlign=middle;resizable=0;points=[];fontSize=12;labelPosition=center;verticalLabelPosition=middle;" vertex="1" connectable="0" parent="0t1lgcjL23reqzB8x4_P-17">
          <mxGeometry x="-0.04" y="3" relative="1" as="geometry">
            <mxPoint x="11" y="2" as="offset" />
          </mxGeometry>
        </mxCell>
        <mxCell id="0t1lgcjL23reqzB8x4_P-19" value="Discovery &amp;amp; Vision" style="text;html=1;align=center;verticalAlign=middle;resizable=0;points=[];autosize=1;strokeColor=none;fillColor=none;fontSize=12;" vertex="1" parent="1">
          <mxGeometry x="370" y="120" width="120" height="20" as="geometry" />
        </mxCell>
        <mxCell id="0t1lgcjL23reqzB8x4_P-20" value="Practices" style="text;html=1;align=center;verticalAlign=middle;resizable=0;points=[];autosize=1;strokeColor=none;fillColor=none;fontSize=12;" vertex="1" parent="1">
          <mxGeometry x="630" y="120" width="60" height="20" as="geometry" />
        </mxCell>
        <mxCell id="0t1lgcjL23reqzB8x4_P-25" value="&amp;nbsp;Platform (Infra automation &amp;amp; enablement)" style="rounded=0;whiteSpace=wrap;html=1;fontSize=12;strokeColor=default;labelPosition=center;verticalLabelPosition=middle;align=center;verticalAlign=middle;" vertex="1" parent="1">
          <mxGeometry x="150" y="660" width="530" height="50" as="geometry" />
        </mxCell>
        <mxCell id="0t1lgcjL23reqzB8x4_P-27" value="Fulfillment" style="rounded=0;whiteSpace=wrap;html=1;fontSize=12;strokeColor=default;labelPosition=center;verticalLabelPosition=top;align=center;verticalAlign=bottom;" vertex="1" parent="1">
          <mxGeometry x="550" y="410" width="90" height="260" as="geometry" />
        </mxCell>
        <mxCell id="0t1lgcjL23reqzB8x4_P-23" value="Inventory" style="rounded=0;whiteSpace=wrap;html=1;fontSize=12;strokeColor=default;labelPosition=center;verticalLabelPosition=top;align=center;verticalAlign=bottom;" vertex="1" parent="1">
          <mxGeometry x="423" y="410" width="90" height="260" as="geometry" />
        </mxCell>
        <mxCell id="0t1lgcjL23reqzB8x4_P-22" value="Catalog" style="rounded=0;whiteSpace=wrap;html=1;fontSize=12;strokeColor=default;labelPosition=center;verticalLabelPosition=top;align=center;verticalAlign=bottom;" vertex="1" parent="1">
          <mxGeometry x="303" y="410" width="90" height="260" as="geometry" />
        </mxCell>
        <mxCell id="0t1lgcjL23reqzB8x4_P-21" value="Order" style="rounded=0;whiteSpace=wrap;html=1;fontSize=12;strokeColor=default;labelPosition=center;verticalLabelPosition=top;align=center;verticalAlign=bottom;" vertex="1" parent="1">
          <mxGeometry x="176" y="410" width="90" height="260" as="geometry" />
        </mxCell>
        <mxCell id="0t1lgcjL23reqzB8x4_P-38" style="edgeStyle=orthogonalEdgeStyle;rounded=0;orthogonalLoop=1;jettySize=auto;html=1;entryX=0;entryY=0.5;entryDx=0;entryDy=0;fontSize=12;startArrow=classic;startFill=1;" edge="1" parent="1" source="0t1lgcjL23reqzB8x4_P-28" target="0t1lgcjL23reqzB8x4_P-35">
          <mxGeometry relative="1" as="geometry" />
        </mxCell>
        <mxCell id="0t1lgcjL23reqzB8x4_P-28" value="Frontend " style="rounded=0;whiteSpace=wrap;html=1;fontSize=12;strokeColor=default;dashed=1;" vertex="1" parent="1">
          <mxGeometry x="184" y="430" width="74" height="30" as="geometry" />
        </mxCell>
        <mxCell id="0t1lgcjL23reqzB8x4_P-24" value="&amp;nbsp;Interfaces " style="rounded=0;whiteSpace=wrap;html=1;fontSize=12;strokeColor=default;dashed=1;" vertex="1" parent="1">
          <mxGeometry x="180.5" y="480" width="81" height="30" as="geometry" />
        </mxCell>
        <mxCell id="0t1lgcjL23reqzB8x4_P-30" value="Domain Layer" style="rounded=0;whiteSpace=wrap;html=1;fontSize=12;strokeColor=default;dashed=1;" vertex="1" parent="1">
          <mxGeometry x="181.25" y="525" width="79.5" height="30" as="geometry" />
        </mxCell>
        <mxCell id="0t1lgcjL23reqzB8x4_P-31" value="&amp;nbsp;Interfaces " style="rounded=0;whiteSpace=wrap;html=1;fontSize=12;strokeColor=default;dashed=1;" vertex="1" parent="1">
          <mxGeometry x="306" y="480" width="84" height="30" as="geometry" />
        </mxCell>
        <mxCell id="0t1lgcjL23reqzB8x4_P-32" value="&amp;nbsp;Interfaces " style="rounded=0;whiteSpace=wrap;html=1;fontSize=12;strokeColor=default;dashed=1;" vertex="1" parent="1">
          <mxGeometry x="426" y="480" width="84" height="30" as="geometry" />
        </mxCell>
        <mxCell id="0t1lgcjL23reqzB8x4_P-33" value="&amp;nbsp;Interfaces " style="rounded=0;whiteSpace=wrap;html=1;fontSize=12;strokeColor=default;dashed=1;" vertex="1" parent="1">
          <mxGeometry x="553" y="480" width="84" height="30" as="geometry" />
        </mxCell>
        <mxCell id="0t1lgcjL23reqzB8x4_P-35" value="Frontend " style="rounded=0;whiteSpace=wrap;html=1;fontSize=12;strokeColor=default;dashed=1;" vertex="1" parent="1">
          <mxGeometry x="311" y="430" width="74" height="30" as="geometry" />
        </mxCell>
        <mxCell id="0t1lgcjL23reqzB8x4_P-36" value="Frontend " style="rounded=0;whiteSpace=wrap;html=1;fontSize=12;strokeColor=default;dashed=1;" vertex="1" parent="1">
          <mxGeometry x="431" y="430" width="74" height="30" as="geometry" />
        </mxCell>
        <mxCell id="0t1lgcjL23reqzB8x4_P-37" value="Frontend " style="rounded=0;whiteSpace=wrap;html=1;fontSize=12;strokeColor=default;dashed=1;" vertex="1" parent="1">
          <mxGeometry x="558" y="430" width="74" height="30" as="geometry" />
        </mxCell>
        <mxCell id="0t1lgcjL23reqzB8x4_P-39" style="edgeStyle=orthogonalEdgeStyle;rounded=0;orthogonalLoop=1;jettySize=auto;html=1;fontSize=12;startArrow=classic;startFill=1;exitX=1;exitY=0.5;exitDx=0;exitDy=0;" edge="1" parent="1" source="0t1lgcjL23reqzB8x4_P-35" target="0t1lgcjL23reqzB8x4_P-36">
          <mxGeometry relative="1" as="geometry">
            <mxPoint x="354" y="455" as="sourcePoint" />
            <mxPoint x="407" y="455" as="targetPoint" />
          </mxGeometry>
        </mxCell>
        <mxCell id="0t1lgcjL23reqzB8x4_P-40" style="edgeStyle=orthogonalEdgeStyle;rounded=0;orthogonalLoop=1;jettySize=auto;html=1;fontSize=12;startArrow=classic;startFill=1;exitX=1;exitY=0.5;exitDx=0;exitDy=0;entryX=0;entryY=0.5;entryDx=0;entryDy=0;" edge="1" parent="1" target="0t1lgcjL23reqzB8x4_P-37">
          <mxGeometry relative="1" as="geometry">
            <mxPoint x="504" y="444.75" as="sourcePoint" />
            <mxPoint x="550" y="444.75" as="targetPoint" />
          </mxGeometry>
        </mxCell>
        <mxCell id="0t1lgcjL23reqzB8x4_P-41" value="CI/CD" style="rounded=0;whiteSpace=wrap;html=1;fontSize=12;strokeColor=default;dashed=1;" vertex="1" parent="1">
          <mxGeometry x="180.5" y="580" width="79.5" height="20" as="geometry" />
        </mxCell>
      </root>
    </mxGraphModel>
  </diagram>
</mxfile>
